<?xml version="1.0" standalone="no"?>
<!DOCTYPE svg PUBLIC "-//W3C//DTD SVG 20010904//EN"
 "http://www.w3.org/TR/2001/REC-SVG-20010904/DTD/svg10.dtd">
<svg version="1.0" xmlns="http://www.w3.org/2000/svg"
 width="51.000000pt" height="44.000000pt" viewBox="0 0 51.000000 44.000000"
 preserveAspectRatio="xMidYMid meet">
<metadata>
Created by potrace 1.16, written by Peter Selinger 2001-2019
</metadata>
<g transform="translate(0.000000,44.000000) scale(0.100000,-0.100000)"
fill="#000000" stroke="none">
<path d="M214 416 c-3 -8 -1 -24 5 -35 10 -18 8 -21 -16 -27 -56 -13 -73 -31
-73 -78 0 -36 -6 -50 -30 -74 -31 -32 -38 -68 -20 -103 28 -51 164 -82 260
-59 90 22 143 88 111 139 -6 8 -6 24 0 38 12 32 1 53 -27 53 -19 0 -24 5 -24
24 0 28 -18 44 -57 55 -17 4 -34 19 -45 40 -17 33 -34 27 -23 -9 4 -11 2 -20
-2 -20 -16 0 -33 24 -33 47 0 25 -17 31 -26 9z m52 -188 c34 0 70 5 82 11 28
15 32 14 32 -7 0 -11 -13 -37 -30 -60 -34 -48 -81 -62 -126 -40 -32 15 -74 72
-74 99 0 16 4 17 28 8 15 -6 54 -11 88 -11z m-128 -28 c-2 -3 7 -16 20 -30 12
-13 22 -27 22 -31 0 -11 66 -39 93 -39 13 0 37 10 52 21 15 12 40 22 55 23 15
1 26 4 24 7 -2 4 3 12 10 19 12 9 17 7 24 -7 19 -37 -21 -88 -82 -104 -51 -14
-147 -14 -191 1 -46 15 -88 65 -79 94 8 27 35 57 47 53 4 -1 7 -5 5 -7z"/>
</g>
</svg>
